<svg width="156" height="150" viewBox="0 0 156 150" fill="none" xmlns="http://www.w3.org/2000/svg">
<rect x="0.5" y="0.5" width="155" height="149" rx="3.5" fill="white" stroke="#C5CEE0"/>
<rect x="12" y="12" width="132" height="12" rx="2" fill="#E4E9F2"/>
<rect x="12" y="36" width="132" height="32" rx="2" fill="#E4E9F2"/>
<rect x="20" y="44" width="85" height="8" rx="1" fill="#C5CEE0"/>
<rect x="117" y="44" width="19" height="12" rx="1" fill="#C5CEE0"/>
<rect x="20" y="56" width="50" height="4" rx="1" fill="#C5CEE0"/>
<rect x="12" y="80" width="132" height="32" rx="2" fill="#E4E9F2"/>
<rect x="20" y="88" width="85" height="8" rx="1" fill="#C5CEE0"/>
<rect x="117" y="88" width="19" height="12" rx="1" fill="#C5CEE0"/>
<rect x="20" y="100" width="50" height="4" rx="1" fill="#C5CEE0"/>
<rect x="1" y="106" width="154" height="24" rx="2" fill="white"/>
<rect x="12" y="114" width="132" height="24" rx="2" fill="#C5CEE0"/>
</svg>
