<svg width="144" height="129" viewBox="0 0 144 129" fill="none" xmlns="http://www.w3.org/2000/svg">
<g clip-path="url(#clip0_616_7774)">
<path d="M142.737 49.3322C142.685 49.3322 142.635 49.3165 142.592 49.287L72.7248 0.729133C72.5122 0.58205 72.2596 0.503446 72.0009 0.503887C71.7421 0.504327 71.4898 0.583789 71.2776 0.731595L1.9134 49.2865C1.85854 49.3249 1.79064 49.34 1.72463 49.3285C1.65863 49.3169 1.59992 49.2796 1.56144 49.2249C1.52296 49.1701 1.50785 49.1024 1.51943 49.0365C1.53101 48.9706 1.56835 48.9121 1.62321 48.8737L70.9875 0.31871C71.2845 0.111813 71.6378 0.000596405 72 2.39194e-06C72.3622 -0.000591621 72.7159 0.109465 73.0136 0.315386L142.881 48.8732C142.925 48.9038 142.958 48.9478 142.976 48.9986C142.993 49.0494 142.994 49.1044 142.978 49.1557C142.962 49.2069 142.929 49.2516 142.886 49.2834C142.843 49.3151 142.79 49.3322 142.737 49.3322L142.737 49.3322Z" fill="#3F3D56"/>
<path d="M5.87744 51.0535L72.0699 2.09741L138.765 54.537L75.4805 91.9758L41.1226 84.1603L5.87744 51.0535Z" fill="#E6E6E6"/>
<path d="M44.0224 115.1H11.3217C11.1209 115.1 10.922 115.061 10.7365 114.985C10.5509 114.908 10.3822 114.796 10.2402 114.654C10.0981 114.513 9.98538 114.344 9.90848 114.159C9.83158 113.974 9.79199 113.776 9.79199 113.575C9.79199 113.375 9.83158 113.177 9.90848 112.991C9.98538 112.806 10.0981 112.638 10.2402 112.497C10.3822 112.355 10.5509 112.243 10.7365 112.166C10.922 112.09 11.1209 112.051 11.3217 112.051H44.0224C44.2232 112.051 44.4221 112.09 44.6077 112.166C44.7933 112.243 44.9619 112.355 45.104 112.497C45.2461 112.638 45.3588 112.806 45.4357 112.991C45.5126 113.177 45.5521 113.375 45.5521 113.575C45.5521 113.776 45.5126 113.974 45.4357 114.159C45.3588 114.344 45.2461 114.513 45.104 114.654C44.9619 114.796 44.7933 114.908 44.6077 114.985C44.4221 115.061 44.2232 115.1 44.0224 115.1Z" fill="#189CA9"/>
<path d="M23.054 108.545H11.3217C11.1209 108.545 10.922 108.506 10.7365 108.43C10.5509 108.353 10.3822 108.241 10.2402 108.099C10.0981 107.958 9.98538 107.789 9.90848 107.604C9.83158 107.419 9.79199 107.221 9.79199 107.02C9.79199 106.82 9.83158 106.622 9.90848 106.437C9.98538 106.251 10.0981 106.083 10.2402 105.942C10.3822 105.8 10.5509 105.688 10.7365 105.611C10.922 105.535 11.1209 105.496 11.3217 105.496H23.054C23.2548 105.496 23.4537 105.535 23.6393 105.611C23.8248 105.688 23.9935 105.8 24.1356 105.942C24.2776 106.083 24.3903 106.251 24.4672 106.437C24.5441 106.622 24.5837 106.82 24.5837 107.02C24.5837 107.221 24.5441 107.419 24.4672 107.604C24.3903 107.789 24.2776 107.958 24.1356 108.099C23.9935 108.241 23.8248 108.353 23.6393 108.43C23.4537 108.506 23.2548 108.545 23.054 108.545Z" fill="#189CA9"/>
<path d="M73.0004 78.3213C72.7519 78.3215 72.5056 78.2734 72.2756 78.1796L31.4526 61.2757V8.36367C31.4532 7.89578 31.6397 7.44722 31.9712 7.11638C32.3027 6.78553 32.7522 6.59942 33.2211 6.59888H111.537C112.006 6.59942 112.455 6.78553 112.787 7.11638C113.118 7.44722 113.305 7.89578 113.305 8.36367V61.3126L113.229 61.3454L73.7472 78.1713C73.5108 78.2705 73.2569 78.3215 73.0004 78.3213Z" fill="white"/>
<path d="M73.0003 78.4473C72.7352 78.4476 72.4727 78.3963 72.2273 78.2964L31.3262 61.36V8.36375C31.3267 7.86244 31.5265 7.38182 31.8818 7.02734C32.237 6.67286 32.7186 6.47347 33.2209 6.4729H111.537C112.039 6.47347 112.521 6.67286 112.876 7.02734C113.231 7.38182 113.431 7.86244 113.431 8.36375V61.3959L73.7966 78.2873C73.5445 78.3931 73.2738 78.4475 73.0003 78.4473ZM31.8314 61.0232L72.42 77.8302C72.7986 77.9835 73.2226 77.9809 73.5993 77.8232L112.926 61.063V8.36375C112.926 7.99613 112.779 7.64369 112.519 7.38374C112.258 7.12379 111.905 6.97756 111.537 6.97713H33.2209C32.8525 6.97756 32.4994 7.12379 32.2389 7.38374C31.9784 7.64369 31.8319 7.99613 31.8314 8.36375L31.8314 61.0232Z" fill="#3F3D56"/>
<path d="M142.232 48.8279H142.181L113.179 61.1865L73.4981 78.0957C73.3431 78.1608 73.1767 78.1947 73.0085 78.1956C72.8403 78.1965 72.6736 78.1642 72.5178 78.1008L31.5789 61.1512L1.86439 48.8481L1.819 48.8279H1.76842C1.29957 48.8284 0.850062 49.0145 0.518532 49.3453C0.187001 49.6762 0.000520232 50.1248 0 50.5927V127.235C0.000520899 127.703 0.187001 128.152 0.518532 128.482C0.850062 128.813 1.29957 128.999 1.76842 129H142.232C142.7 128.999 143.15 128.813 143.481 128.482C143.813 128.152 143.999 127.703 144 127.235V50.5927C143.999 50.1248 143.813 49.6762 143.481 49.3453C143.15 49.0145 142.7 48.8284 142.232 48.8279ZM143.495 127.235C143.495 127.569 143.361 127.89 143.125 128.126C142.888 128.363 142.567 128.496 142.232 128.496H1.76842C1.43345 128.496 1.11224 128.363 0.875383 128.126C0.638524 127.89 0.505397 127.569 0.505263 127.235V50.5927C0.505721 50.2667 0.632428 49.9535 0.858892 49.7186C1.08536 49.4837 1.39405 49.3452 1.72044 49.3321L31.5789 61.6957L72.3234 78.5672C72.7645 78.7462 73.2587 78.7435 73.6977 78.5596L113.179 61.7336L142.282 49.3321C142.608 49.3461 142.916 49.485 143.142 49.7198C143.368 49.9546 143.494 50.2672 143.495 50.5927V127.235Z" fill="#3F3D56"/>
<path d="M72.5926 63.3176C71.0855 63.3204 69.6184 62.8341 68.4126 61.9319L68.3378 61.8759L52.5961 49.8482C51.8671 49.2908 51.2552 48.5955 50.7954 47.8021C50.3356 47.0087 50.037 46.1326 49.9164 45.224C49.7959 44.3154 49.8559 43.392 50.093 42.5065C50.3301 41.621 50.7396 40.7908 51.2982 40.0633C51.8568 39.3358 52.5535 38.7252 53.3485 38.2663C54.1436 37.8075 55.0214 37.5094 55.9319 37.3891C56.8424 37.2689 57.7677 37.3287 58.655 37.5653C59.5423 37.8019 60.3742 38.2106 61.1032 38.768L71.2995 46.5704L95.395 15.2108C95.9538 14.4835 96.6507 13.8731 97.446 13.4146C98.2412 12.956 99.1191 12.6582 100.03 12.5383C100.94 12.4183 101.865 12.4786 102.753 12.7155C103.64 12.9524 104.472 13.3614 105.2 13.9191L105.051 14.1221L105.204 13.9221C106.674 15.0497 107.636 16.7132 107.879 18.5477C108.122 20.3822 107.625 22.2378 106.499 23.7075L78.1566 60.5938C77.5011 61.4438 76.6582 62.1317 75.6933 62.604C74.7284 63.0764 73.6673 63.3206 72.5926 63.3176Z" fill="#189CA9"/>
</g>
<defs>
<clipPath id="clip0_616_7774">
<rect width="144" height="129" fill="white"/>
</clipPath>
</defs>
</svg>
