<svg width="26" height="28" viewBox="0 0 26 28" fill="none" xmlns="http://www.w3.org/2000/svg">
<path d="M23.0133 5.79984L15.0933 1.2265C13.8 0.479837 12.2 0.479837 10.8933 1.2265L2.98664 5.79984C1.69331 6.5465 0.893311 7.93317 0.893311 9.43984V18.5598C0.893311 20.0532 1.69331 21.4398 2.98664 22.1998L10.9066 26.7732C12.2 27.5198 13.8 27.5198 15.1066 26.7732L23.0266 22.1998C24.32 21.4532 25.12 20.0665 25.12 18.5598V9.43984C25.1066 7.93317 24.3066 6.55984 23.0133 5.79984ZM12 8.33317C12 7.7865 12.4533 7.33317 13 7.33317C13.5466 7.33317 14 7.7865 14 8.33317V15.3332C14 15.8798 13.5466 16.3332 13 16.3332C12.4533 16.3332 12 15.8798 12 15.3332V8.33317ZM14.2266 20.1732C14.16 20.3332 14.0666 20.4798 13.9466 20.6132C13.6933 20.8665 13.36 20.9998 13 20.9998C12.8266 20.9998 12.6533 20.9598 12.4933 20.8932C12.32 20.8265 12.1866 20.7332 12.0533 20.6132C11.9333 20.4798 11.84 20.3332 11.76 20.1732C11.6933 20.0132 11.6666 19.8398 11.6666 19.6665C11.6666 19.3198 11.8 18.9732 12.0533 18.7198C12.1866 18.5998 12.32 18.5065 12.4933 18.4398C12.9866 18.2265 13.5733 18.3465 13.9466 18.7198C14.0666 18.8532 14.16 18.9865 14.2266 19.1598C14.2933 19.3198 14.3333 19.4932 14.3333 19.6665C14.3333 19.8398 14.2933 20.0132 14.2266 20.1732Z" fill="#FFAA00"/>
</svg>
